<?xml version="1.0" encoding="utf-8"?>
<!DOCTYPE svg PUBLIC "-//W3C//DTD SVG 1.1//EN" "http://www.w3.org/Graphics/SVG/1.1/DTD/svg11.dtd">
<svg version="1.1" xmlns="http://www.w3.org/2000/svg" x="0px" y="0px" width="24px" height="24px" viewBox="0 0 24 24" enable-background="new 0 0 24 24" xml:space="preserve">
<g>
<path fill="#53A93F" d="M12.001,22C6.478,22,2,17.522,2,12C2,6.477,6.478,2,12.001,2C17.521,2,22,6.477,22,12C22,17.522,17.521,22,12.001,22z"/>
<path fill="#FFFFFF" d="M6.568,16.395c1.105,1.367,2.716,2.302,4.549,2.534c-0.041-1.414-1.193-2.552-2.618-2.552H6.75C6.687,16.377,6.628,16.391,6.568,16.395z"/>
<path fill="#FFFFFF" d="M17.432,16.395c-0.061-0.004-0.118-0.018-0.183-0.018h-1.75c-1.424,0-2.576,1.138-2.617,2.552C14.714,18.697,16.324,17.762,17.432,16.395z"/>
<path fill="#FFFFFF" d="M12.001,5.001c1.449,0,2.624,1.176,2.624,2.625c0,1.449-1.175,2.625-2.624,2.625c-1.452,0-2.627-1.175-2.627-2.625C9.374,6.176,10.549,5.001,12.001,5.001z"/>
<path fill="#FFFFFF" d="M7.625,10.251c1.45,0,2.625,1.175,2.625,2.625c0,1.45-1.175,2.626-2.625,2.626c-1.451,0-2.626-1.176-2.626-2.626C4.999,11.426,6.174,10.251,7.625,10.251z"/>
<path fill="#FFFFFF" d="M16.374,10.251c1.449,0,2.624,1.175,2.624,2.625c0,1.45-1.175,2.626-2.624,2.626s-2.625-1.176-2.625-2.626C13.749,11.426,14.925,10.251,16.374,10.251z"/>
</g>
<g opacity="0.5">
<path fill="#00AFFF" d="M24,0v24H0V0H24 M24.5-0.5H24H0h-0.5V0v24v0.5H0h24h0.5V24V0V-0.5L24.5-0.5z"/>
</g>
</svg>
