<?xml version="1.0" encoding="utf-8"?>
<svg version="1.1" xmlns="http://www.w3.org/2000/svg" viewBox="0 0 21 21">
<path d="M12.948,6C12.982,5.839,13,5.672,13,5.502C13,4.119,11.882,3,10.503,3C9.12,3,8.004,4.119,8.004,5.502
  c0,0.17,0.018,0.337,0.05,0.498H12.948z" fill="white"/>
<path d="M17,11h-3v-1l2-2V5h-1v2.586l-1,1V8l-1-1H8L7,8v0.586l-1-1V5H5v3l2,2v1H4c-0.553,0-1,0.447-1,1v1h1v-1h3v1l-2,2v3h1v-2.586
  l1.464-1.464C8.349,15.126,9.33,16,10.502,16c1.171,0,2.152-0.873,3.034-2.049L15,15.414V18h1v-3l-2-2v-1h3v1h1v-1
  C18,11.447,17.553,11,17,11z" fill="#231F20"/>
</svg>