<?xml version="1.0" encoding="utf-8"?>
<!DOCTYPE svg PUBLIC "-//W3C//DTD SVG 1.1//EN" "http://www.w3.org/Graphics/SVG/1.1/DTD/svg11.dtd">
<svg version="1.1" xmlns="http://www.w3.org/2000/svg" x="0px" y="0px" width="21px" height="21px" viewBox="0 0 21 21" overflow="visible" enable-background="new 0 0 21 21" xml:space="preserve">
<path d="M16.786,5H3.213C2.547,5,2.003,5.545,2,6.213v8.572C2,15.455,2.543,16,3.213,16h13.573C17.457,16,18,15.455,18,14.785V6.213C17.998,5.545,17.454,5,16.786,5z M16.607,7.773l0.009,0.012l-6.054,4.041l-0.011-0.016C10.392,11.92,10.208,12,9.999,12c-0.208,0-0.392-0.08-0.551-0.189l-0.011,0.016L3.384,7.785l0.009-0.012C3.159,7.59,3,7.318,3,7c0-0.551,0.447-1,0.999-1c0.24,0,0.452,0.096,0.624,0.236l0.006-0.008L10,9.809l5.371-3.58l0.007,0.008C15.549,6.096,15.761,6,16.001,6C16.553,6,17,6.449,17,7C17,7.318,16.841,7.59,16.607,7.773z"/>
<rect opacity="0" fill="#4387FD" width="21" height="21"/>
</svg>
