<svg xmlns="http://www.w3.org/2000/svg" width="48" height="48" viewBox="0 0 48 48">
 <path d="M0 0h48v48H0z" fill="none"/>
 <path d="M40 16h-5.62c-.9-1.56-2.14-2.91-3.63-3.92L34 8.83 31.17 6l-4.35 4.35c-.9-.22-1.85-.35-2.82-.35-.97 0-1.92.13-2.82.35L16.83 6 14 8.83l3.25 3.25c-1.49 1.01-2.73 2.36-3.63 3.92H8v4h4.18c-.11.65-.18 1.32-.18 2v2H8v4h4v2c0 .68.07 1.35.18 2H8v4h5.62c2.07 3.58 5.94 6 10.38 6s8.31-2.42 10.38-6H40v-4h-4.18c.11-.65.18-1.32.18-2v-2h4v-4h-4v-2c0-.68-.07-1.35-.18-2H40v-4zM6 8h.73L14 15.27V16H6V8z"/>
 <line x1="2" x2="38" y1="6" y2="42" stroke="black" stroke-width="4" stroke-linecap="square"/>
 <line x1="8" x2="44" y1="6" y2="42" stroke="white" stroke-width="4" stroke-linecap="square"/>
 <line x1="38" x2="44" y1="32" y2="38" stroke="white" stroke-width="4" stroke-linecap="square"/>
 <line x1="2" x2="10" y1="12" y2="20" stroke="white" stroke-width="4" stroke-linecap="square"/>
</svg>
