<?xml version="1.0" encoding="utf-8"?>
<!DOCTYPE svg PUBLIC "-//W3C//DTD SVG 1.1//EN" "http://www.w3.org/Graphics/SVG/1.1/DTD/svg11.dtd">
<svg version="1.1" xmlns="http://www.w3.org/2000/svg" xmlns:xlink="http://www.w3.org/1999/xlink" width="24px"
   height="24px" viewBox="0 0 24 24" enable-background="new 0 0 24 24" xml:space="preserve">
<symbol  id="ic_x5F_filter_x5F_flat" viewBox="0 -24 24 24">
  <path d="M13.5-15h-3c-0.276,0-0.5-0.224-0.5-0.5v-2c0-0.276,0.224-0.5,0.5-0.5h3c0.276,0,0.5,0.224,0.5,0.5v2
    C14-15.224,13.776-15,13.5-15z M17.5-10h-11C6.224-10,6-10.224,6-10.5v-2C6-12.776,6.224-13,6.5-13h11c0.276,0,0.5,0.224,0.5,0.5v2
    C18-10.224,17.776-10,17.5-10z M20.5-5h-17C3.224-5,3-5.224,3-5.5v-2C3-7.776,3.224-8,3.5-8h17C20.776-8,21-7.776,21-7.5v2
    C21-5.224,20.776-5,20.5-5z"/>
<polygon fill="none" points="24,-24 0,-24 0,0 24,0"/>
</symbol>
<use xlink:href="#ic_x5F_filter_x5F_flat" width="24" height="24" id="A" y="-24" transform="matrix(1 0 0 -1 0 0)" overflow="visible"/>
</svg>
