<?xml version="1.0" encoding="utf-8"?>
<!DOCTYPE svg PUBLIC "-//W3C//DTD SVG 1.1//EN" "http://www.w3.org/Graphics/SVG/1.1/DTD/svg11.dtd">
<svg version="1.1" xmlns="http://www.w3.org/2000/svg" xmlns:xlink="http://www.w3.org/1999/xlink" x="0px" y="0px" width="24px"
   height="24px" viewBox="0 0 24 24" enable-background="new 0 0 24 24" xml:space="preserve">
<symbol  id="ic_x5F_refresh_x5F_flat_1_" viewBox="0 -24 24 24">
<path d="M17.649-6.351C16.203-4.901,14.21-4,12-4c-4.418,0-8-3.582-8-8s3.582-8,8-8c3.726,0,6.843,2.552,7.732,6h-2.084c-0.823-2.33-3.037-4-5.648-4c-3.314,0-6,2.686-6,6s2.686,6,6,6c1.657,0,3.141-0.688,4.225-1.775L13-11h7v7L17.649-6.351z"/>
<polygon fill="none" points="24,-24 0,-24 0,0 24,0"/>
</symbol>
<use xlink:href="#ic_x5F_refresh_x5F_flat_1_"  width="24" height="24" id="XMLID_10_" y="-24" transform="matrix(1 0 0 -1 0 0)" overflow="visible"/>
</svg>
