<?xml version="1.0" encoding="utf-8"?>
<!DOCTYPE svg PUBLIC "-//W3C//DTD SVG 1.1//EN" "http://www.w3.org/Graphics/SVG/1.1/DTD/svg11.dtd">
<svg version="1.1" xmlns="http://www.w3.org/2000/svg" viewBox="0 0 192 192" enable-background="new 0 0 192 192" xml:space="preserve">
<path fill="#C5C5C5" d="M173.7,36H63.4c-5.7,0-10.8,2.3-14.6,6.1l-36,35.1c-5.2,5-8.5,12.1-8.5,19.9c0,7.6,3.1,14.6,8.1,19.6l0,0l36.4,32.8c3.7,3.8,8.9,5.7,14.6,5.7h110.3c5.7,0,10.3-3,10.3-8.7V45.6C184,39.9,179.4,36,173.7,36z M37.7,111c-7.7,0-13.8-6.3-13.6-14c0.2-7.7,6.6-14,14.3-14c7.7,0,13.8,6.3,13.6,14C51.8,104.8,45.4,111,37.7,111z M172,135c0,3.3-2.7,6-6,6H86c-3.3,0-6-2.7-6-6V55c0-3.3,2.7-6,6-6h80c3.3,0,6,2.7,6,6V135z"/>
<path fill="#ADADAD" d="M172,56v79c0,3.3-2.7,6-6,6H86c-1.4,0-2.7-0.5-3.7-1.3L82,140l15,15h76.5c5.7,0,10.5-3,10.5-8.7V68L172,56z"/>
<circle fill="#999999" cx="116.2" cy="76.1" r="5.2"/>
<circle fill="#999999" cx="116.2" cy="110.6" r="5.2"/>
<path stroke="#999999" stroke-width="5" stroke-linecap="round" fill="none" d="m135 65.5Q156 95 135 125"/>
</svg>